<svg id="visual" viewBox="0 0 960 540" width="960" height="540" xmlns="http://www.w3.org/2000/svg" xmlns:xlink="http://www.w3.org/1999/xlink" version="1.1"><rect x="0" y="0" width="960" height="540" fill="#001220"></rect><path d="M0 348L7 352C14 356 28 364 41.8 387.5C55.7 411 69.3 450 83.2 459.3C97 468.7 111 448.3 125 449.8C139 451.3 153 474.7 167 477.8C181 481 195 464 208.8 434.5C222.7 405 236.3 363 250.2 368.5C264 374 278 427 292 451.2C306 475.3 320 470.7 334 446.8C348 423 362 380 375.8 382.5C389.7 385 403.3 433 417.2 444.8C431 456.7 445 432.3 459 429.8C473 427.3 487 446.7 501 439.7C515 432.7 529 399.3 542.8 402.2C556.7 405 570.3 444 584.2 453C598 462 612 441 626 421.3C640 401.7 654 383.3 668 392.7C682 402 696 439 709.8 445.8C723.7 452.7 737.3 429.3 751.2 430.5C765 431.7 779 457.3 793 471.5C807 485.7 821 488.3 835 462.3C849 436.3 863 381.7 876.8 360.2C890.7 338.7 904.3 350.3 918.2 347.5C932 344.7 946 327.3 953 318.7L960 310L960 541L953 541C946 541 932 541 918.2 541C904.3 541 890.7 541 876.8 541C863 541 849 541 835 541C821 541 807 541 793 541C779 541 765 541 751.2 541C737.3 541 723.7 541 709.8 541C696 541 682 541 668 541C654 541 640 541 626 541C612 541 598 541 584.2 541C570.3 541 556.7 541 542.8 541C529 541 515 541 501 541C487 541 473 541 459 541C445 541 431 541 417.2 541C403.3 541 389.7 541 375.8 541C362 541 348 541 334 541C320 541 306 541 292 541C278 541 264 541 250.2 541C236.3 541 222.7 541 208.8 541C195 541 181 541 167 541C153 541 139 541 125 541C111 541 97 541 83.2 541C69.3 541 55.7 541 41.8 541C28 541 14 541 7 541L0 541Z" fill="#36b796"></path><path d="M0 397L7 394.7C14 392.3 28 387.7 41.8 389.7C55.7 391.7 69.3 400.3 83.2 409.7C97 419 111 429 125 426.5C139 424 153 409 167 403.2C181 397.3 195 400.7 208.8 416.2C222.7 431.7 236.3 459.3 250.2 466.3C264 473.3 278 459.7 292 455.2C306 450.7 320 455.3 334 454.8C348 454.3 362 448.7 375.8 445.3C389.7 442 403.3 441 417.2 425.7C431 410.3 445 380.7 459 378C473 375.3 487 399.7 501 418.3C515 437 529 450 542.8 459.8C556.7 469.7 570.3 476.3 584.2 461.8C598 447.3 612 411.7 626 402.5C640 393.3 654 410.7 668 411C682 411.3 696 394.7 709.8 390.3C723.7 386 737.3 394 751.2 407.8C765 421.7 779 441.3 793 456.5C807 471.7 821 482.3 835 461.5C849 440.7 863 388.3 876.8 372.8C890.7 357.3 904.3 378.7 918.2 405.3C932 432 946 464 953 480L960 496L960 541L953 541C946 541 932 541 918.2 541C904.3 541 890.7 541 876.8 541C863 541 849 541 835 541C821 541 807 541 793 541C779 541 765 541 751.2 541C737.3 541 723.7 541 709.8 541C696 541 682 541 668 541C654 541 640 541 626 541C612 541 598 541 584.2 541C570.3 541 556.7 541 542.8 541C529 541 515 541 501 541C487 541 473 541 459 541C445 541 431 541 417.2 541C403.3 541 389.7 541 375.8 541C362 541 348 541 334 541C320 541 306 541 292 541C278 541 264 541 250.2 541C236.3 541 222.7 541 208.8 541C195 541 181 541 167 541C153 541 139 541 125 541C111 541 97 541 83.2 541C69.3 541 55.7 541 41.8 541C28 541 14 541 7 541L0 541Z" fill="#2bad8c"></path><path d="M0 391L7 408.3C14 425.7 28 460.3 41.8 469.2C55.7 478 69.3 461 83.2 461.5C97 462 111 480 125 481.3C139 482.7 153 467.3 167 462.3C181 457.3 195 462.7 208.8 466C222.7 469.3 236.3 470.7 250.2 475.5C264 480.3 278 488.7 292 473.2C306 457.7 320 418.3 334 406.5C348 394.7 362 410.3 375.8 419.8C389.7 429.3 403.3 432.7 417.2 444.3C431 456 445 476 459 487.8C473 499.7 487 503.3 501 496.8C515 490.3 529 473.7 542.8 472.7C556.7 471.7 570.3 486.3 584.2 488.7C598 491 612 481 626 477.8C640 474.7 654 478.3 668 476.3C682 474.3 696 466.7 709.8 455.7C723.7 444.7 737.3 430.3 751.2 431.7C765 433 779 450 793 445.2C807 440.3 821 413.7 835 399.2C849 384.7 863 382.3 876.8 400.3C890.7 418.3 904.3 456.7 918.2 459.3C932 462 946 429 953 412.5L960 396L960 541L953 541C946 541 932 541 918.2 541C904.3 541 890.7 541 876.8 541C863 541 849 541 835 541C821 541 807 541 793 541C779 541 765 541 751.2 541C737.3 541 723.7 541 709.8 541C696 541 682 541 668 541C654 541 640 541 626 541C612 541 598 541 584.2 541C570.3 541 556.7 541 542.8 541C529 541 515 541 501 541C487 541 473 541 459 541C445 541 431 541 417.2 541C403.3 541 389.7 541 375.8 541C362 541 348 541 334 541C320 541 306 541 292 541C278 541 264 541 250.2 541C236.3 541 222.7 541 208.8 541C195 541 181 541 167 541C153 541 139 541 125 541C111 541 97 541 83.2 541C69.3 541 55.7 541 41.8 541C28 541 14 541 7 541L0 541Z" fill="#1ea382"></path><path d="M0 419L7 431.8C14 444.7 28 470.3 41.8 481C55.7 491.7 69.3 487.3 83.2 479C97 470.7 111 458.3 125 457.5C139 456.7 153 467.3 167 468C181 468.7 195 459.3 208.8 448.3C222.7 437.3 236.3 424.7 250.2 422.5C264 420.3 278 428.7 292 428C306 427.3 320 417.7 334 428.7C348 439.7 362 471.3 375.8 468.3C389.7 465.3 403.3 427.7 417.2 424.2C431 420.7 445 451.3 459 460C473 468.7 487 455.3 501 458.2C515 461 529 480 542.8 476.3C556.7 472.7 570.3 446.3 584.2 435.7C598 425 612 430 626 426.5C640 423 654 411 668 418.5C682 426 696 453 709.8 464C723.7 475 737.3 470 751.2 470.5C765 471 779 477 793 484.8C807 492.7 821 502.3 835 494.5C849 486.7 863 461.3 876.8 449.3C890.7 437.3 904.3 438.7 918.2 448C932 457.3 946 474.7 953 483.3L960 492L960 541L953 541C946 541 932 541 918.2 541C904.3 541 890.7 541 876.8 541C863 541 849 541 835 541C821 541 807 541 793 541C779 541 765 541 751.2 541C737.3 541 723.7 541 709.8 541C696 541 682 541 668 541C654 541 640 541 626 541C612 541 598 541 584.2 541C570.3 541 556.7 541 542.8 541C529 541 515 541 501 541C487 541 473 541 459 541C445 541 431 541 417.2 541C403.3 541 389.7 541 375.8 541C362 541 348 541 334 541C320 541 306 541 292 541C278 541 264 541 250.2 541C236.3 541 222.7 541 208.8 541C195 541 181 541 167 541C153 541 139 541 125 541C111 541 97 541 83.2 541C69.3 541 55.7 541 41.8 541C28 541 14 541 7 541L0 541Z" fill="#0d9978"></path><path d="M0 452L7 457.7C14 463.3 28 474.7 41.8 481.2C55.7 487.7 69.3 489.3 83.2 491.5C97 493.7 111 496.3 125 491.7C139 487 153 475 167 463.5C181 452 195 441 208.8 432.8C222.7 424.7 236.3 419.3 250.2 426.3C264 433.3 278 452.7 292 454.8C306 457 320 442 334 444.2C348 446.3 362 465.7 375.8 476.8C389.7 488 403.3 491 417.2 496C431 501 445 508 459 510.7C473 513.3 487 511.7 501 510.5C515 509.3 529 508.7 542.8 499.2C556.7 489.7 570.3 471.3 584.2 465.2C598 459 612 465 626 461.7C640 458.3 654 445.7 668 436.7C682 427.7 696 422.3 709.8 419.7C723.7 417 737.3 417 751.2 416.3C765 415.7 779 414.3 793 415.2C807 416 821 419 835 420.7C849 422.3 863 422.7 876.8 435.2C890.7 447.7 904.3 472.3 918.2 487.3C932 502.3 946 507.7 953 510.3L960 513L960 541L953 541C946 541 932 541 918.2 541C904.3 541 890.7 541 876.8 541C863 541 849 541 835 541C821 541 807 541 793 541C779 541 765 541 751.2 541C737.3 541 723.7 541 709.8 541C696 541 682 541 668 541C654 541 640 541 626 541C612 541 598 541 584.2 541C570.3 541 556.7 541 542.8 541C529 541 515 541 501 541C487 541 473 541 459 541C445 541 431 541 417.2 541C403.3 541 389.7 541 375.8 541C362 541 348 541 334 541C320 541 306 541 292 541C278 541 264 541 250.2 541C236.3 541 222.7 541 208.8 541C195 541 181 541 167 541C153 541 139 541 125 541C111 541 97 541 83.2 541C69.3 541 55.7 541 41.8 541C28 541 14 541 7 541L0 541Z" fill="#008e6f"></path><path d="M0 515L7 502.8C14 490.7 28 466.3 41.8 466.3C55.7 466.3 69.3 490.7 83.2 503C97 515.3 111 515.7 125 515C139 514.3 153 512.7 167 503.7C181 494.7 195 478.3 208.8 474.2C222.7 470 236.3 478 250.2 476C264 474 278 462 292 463.7C306 465.3 320 480.7 334 483.7C348 486.7 362 477.3 375.8 474.7C389.7 472 403.3 476 417.2 471.5C431 467 445 454 459 452.3C473 450.7 487 460.3 501 469C515 477.7 529 485.3 542.8 488.2C556.7 491 570.3 489 584.2 492.8C598 496.7 612 506.3 626 500.7C640 495 654 474 668 466.5C682 459 696 465 709.8 469.5C723.7 474 737.3 477 751.2 472.3C765 467.7 779 455.3 793 459.2C807 463 821 483 835 493.5C849 504 863 505 876.8 502.2C890.7 499.3 904.3 492.7 918.2 484.8C932 477 946 468 953 463.5L960 459L960 541L953 541C946 541 932 541 918.2 541C904.3 541 890.7 541 876.8 541C863 541 849 541 835 541C821 541 807 541 793 541C779 541 765 541 751.2 541C737.3 541 723.7 541 709.8 541C696 541 682 541 668 541C654 541 640 541 626 541C612 541 598 541 584.2 541C570.3 541 556.7 541 542.8 541C529 541 515 541 501 541C487 541 473 541 459 541C445 541 431 541 417.2 541C403.3 541 389.7 541 375.8 541C362 541 348 541 334 541C320 541 306 541 292 541C278 541 264 541 250.2 541C236.3 541 222.7 541 208.8 541C195 541 181 541 167 541C153 541 139 541 125 541C111 541 97 541 83.2 541C69.3 541 55.7 541 41.8 541C28 541 14 541 7 541L0 541Z" fill="#008366"></path><path d="M0 475L7 478C14 481 28 487 41.8 490.3C55.7 493.7 69.3 494.3 83.2 494.2C97 494 111 493 125 496.7C139 500.3 153 508.7 167 508.3C181 508 195 499 208.8 499.8C222.7 500.7 236.3 511.3 250.2 513.5C264 515.7 278 509.3 292 503.8C306 498.3 320 493.7 334 496.7C348 499.7 362 510.3 375.8 515.5C389.7 520.7 403.3 520.3 417.2 511.3C431 502.3 445 484.7 459 484.5C473 484.3 487 501.7 501 509C515 516.3 529 513.7 542.8 506C556.7 498.3 570.3 485.7 584.2 479.2C598 472.7 612 472.3 626 476.7C640 481 654 490 668 491C682 492 696 485 709.8 479C723.7 473 737.3 468 751.2 466.2C765 464.3 779 465.7 793 469.8C807 474 821 481 835 482.7C849 484.3 863 480.7 876.8 484.5C890.7 488.3 904.3 499.7 918.2 501C932 502.3 946 493.7 953 489.3L960 485L960 541L953 541C946 541 932 541 918.2 541C904.3 541 890.7 541 876.8 541C863 541 849 541 835 541C821 541 807 541 793 541C779 541 765 541 751.2 541C737.3 541 723.7 541 709.8 541C696 541 682 541 668 541C654 541 640 541 626 541C612 541 598 541 584.2 541C570.3 541 556.7 541 542.8 541C529 541 515 541 501 541C487 541 473 541 459 541C445 541 431 541 417.2 541C403.3 541 389.7 541 375.8 541C362 541 348 541 334 541C320 541 306 541 292 541C278 541 264 541 250.2 541C236.3 541 222.7 541 208.8 541C195 541 181 541 167 541C153 541 139 541 125 541C111 541 97 541 83.2 541C69.3 541 55.7 541 41.8 541C28 541 14 541 7 541L0 541Z" fill="#00775d"></path><path d="M0 513L7 515.3C14 517.7 28 522.3 41.8 518.8C55.7 515.3 69.3 503.7 83.2 498.8C97 494 111 496 125 499C139 502 153 506 167 507C181 508 195 506 208.8 508C222.7 510 236.3 516 250.2 519C264 522 278 522 292 523.2C306 524.3 320 526.7 334 523C348 519.3 362 509.7 375.8 508.2C389.7 506.7 403.3 513.3 417.2 512.2C431 511 445 502 459 496.8C473 491.7 487 490.3 501 493.7C515 497 529 505 542.8 504.8C556.7 504.7 570.3 496.3 584.2 496.3C598 496.3 612 504.7 626 505.3C640 506 654 499 668 498.2C682 497.3 696 502.7 709.8 503.2C723.7 503.7 737.3 499.3 751.2 500.5C765 501.7 779 508.3 793 513.2C807 518 821 521 835 522.3C849 523.7 863 523.3 876.8 518.7C890.7 514 904.3 505 918.2 500.7C932 496.3 946 496.7 953 496.8L960 497L960 541L953 541C946 541 932 541 918.2 541C904.3 541 890.7 541 876.8 541C863 541 849 541 835 541C821 541 807 541 793 541C779 541 765 541 751.2 541C737.3 541 723.7 541 709.8 541C696 541 682 541 668 541C654 541 640 541 626 541C612 541 598 541 584.2 541C570.3 541 556.7 541 542.8 541C529 541 515 541 501 541C487 541 473 541 459 541C445 541 431 541 417.2 541C403.3 541 389.7 541 375.8 541C362 541 348 541 334 541C320 541 306 541 292 541C278 541 264 541 250.2 541C236.3 541 222.7 541 208.8 541C195 541 181 541 167 541C153 541 139 541 125 541C111 541 97 541 83.2 541C69.3 541 55.7 541 41.8 541C28 541 14 541 7 541L0 541Z" fill="#006c55"></path></svg>